<svg width="227" height="48" viewBox="0 0 227 48" fill="none" xmlns="http://www.w3.org/2000/svg">
<path d="M186.494 5.31646C186.205 6.04833 186.191 7.58113 187.887 10.3843C187.887 10.3843 194.642 23.4615 197.248 26.0575C200.846 29.5512 204.541 33.5006 206.995 35.8619C211.931 40.6398 215.75 42.0345 218.59 39.9356C218.618 39.9632 218.673 39.977 218.714 39.9632C219.459 39.5489 219.624 39.7975 221.251 40.6674C222.685 41.4822 224.739 41.4407 225.966 40.7503C226.214 40.6122 227.29 39.8665 226.917 38.9413C226.504 38.1956 226.242 38.3199 225.125 38.6375C224.684 38.7204 223.498 38.5961 222.781 38.1818C222.395 38.0713 221.347 37.3533 221.334 35.8895C221.292 35.7791 221.196 35.7238 221.141 35.641C221.347 33.5558 220.313 31.4154 217.942 29.3579C214.316 26.6789 210.718 26.7342 208.264 29.5926C207.96 29.9241 207.23 30.5178 206.471 29.4822C203.356 25.7123 204.914 23.8343 200.143 18.5593L186.894 4.72267C186.922 4.72267 186.66 4.87457 186.494 5.31646ZM201.536 0L200.226 15.2451C202.556 17.3441 204.596 20.3959 204.982 21.9701C205.203 22.6605 205.465 23.3786 205.934 23.931C206.458 16.7917 203.645 2.87227 203.645 2.87227C203.287 0.469505 201.536 0 201.536 0ZM191.375 38.9965C190.148 43.443 191.458 46.7572 194.932 47.7238C199.564 49.0081 202.377 45.611 203.7 37.8642C203.755 37.6709 203.852 36.6352 203.948 36.2486C203.618 35.9448 200.695 32.893 200.171 32.5339C200.157 33.3625 199.275 33.5144 198.889 33.4177C195.428 32.4511 192.616 34.5501 191.375 38.9965ZM193.857 39.687C195.235 35.4891 197.331 36.0967 198.103 36.3176C198.682 36.4833 200.819 37.0495 199.647 41.3026C198.475 45.5558 196.338 45.0035 195.566 44.7825C194.794 44.5616 192.671 43.9402 193.857 39.687ZM201.743 28.8055C201.784 28.626 201.88 28.4051 202.032 28.2394C202.446 27.5213 203.328 27.3556 204.045 27.756C204.762 28.1703 204.927 29.0541 204.528 29.7722C204.114 30.4902 203.232 30.6559 202.515 30.2555C201.963 29.9517 201.618 29.3717 201.743 28.8055ZM210.056 32.5478C210.194 32.0368 210.47 31.664 210.676 31.4845C211.09 30.7664 212.565 29.0955 215.943 31.9125C219.321 34.7158 218.025 36.4143 217.487 36.8976C217.129 37.4223 215.846 39.1484 212.221 36.4695C210.097 34.7158 209.835 33.4177 210.056 32.5478Z" fill="white"/>
<path d="M31.0893 5.427L20.6389 22.7573L31.9992 41.2613H22.376L15.8962 30.6974L9.51291 41.2613H0L11.0708 22.8125L0.441178 5.427H10.0092L15.8548 14.9138L21.5074 5.427H31.0893Z" fill="white"/>
<path d="M42.6426 41.2613H34.4671V5.66174H42.6426V41.2613Z" fill="white"/>
<path d="M58.0149 41.9379C56.8844 41.9379 55.7677 41.786 54.651 41.4822C53.5342 41.1784 52.4864 40.6951 51.48 40.0599C49.7428 38.9275 48.3917 37.4638 47.4129 35.6824C46.4478 33.8873 45.9653 31.9264 45.9653 29.7998H54.1408C54.1408 30.7664 54.3476 31.5259 54.775 32.0507C55.1886 32.5892 55.5609 32.9483 55.8918 33.1416C56.4708 33.5282 57.105 33.7354 57.7806 33.7768C58.4561 33.8044 59.1179 33.6801 59.7659 33.3901C60.2208 33.1968 60.5793 32.9483 60.855 32.6583C61.1308 32.3683 61.3376 32.0783 61.4892 31.8159C61.6271 31.5397 61.7236 31.2774 61.7512 31.015C61.7787 30.7526 61.7925 30.5455 61.7925 30.3798C61.7925 30.2141 61.7787 30.0069 61.7512 29.7446C61.7236 29.4822 61.6271 29.206 61.4892 28.916C61.3376 28.626 61.1308 28.3499 60.855 28.0737C60.5793 27.7975 60.2208 27.5489 59.7659 27.328C59.4074 27.1623 59.0352 27.0242 58.6353 26.8861C58.2355 26.7618 57.8081 26.6099 57.3532 26.4442C56.5535 26.1819 55.7125 25.8919 54.844 25.5743C53.9754 25.2567 53.1068 24.8148 52.2383 24.2624C51.1077 23.5581 50.1565 22.6606 49.3844 21.5973C48.6123 20.534 48.0609 19.3878 47.7162 18.1588C47.3715 16.9298 47.2612 15.6594 47.3715 14.3614C47.4818 13.0495 47.8403 11.8067 48.4607 10.6053C49.0397 9.51442 49.7704 8.5616 50.639 7.74687C51.5076 6.94595 52.4726 6.29693 53.5342 5.82742C54.5958 5.35792 55.7401 5.08174 56.9671 4.98507C58.1942 4.88841 59.435 4.99888 60.6896 5.3303C61.9166 5.62029 63.0196 6.07598 64.0122 6.7112C65.0049 7.34641 65.8596 8.1059 66.5903 8.98968C67.321 9.87345 67.8587 10.8677 68.2448 11.9724C68.6308 13.0633 68.8238 14.2095 68.8238 15.4109H60.6896C60.6896 14.6652 60.4552 14.1542 59.9865 13.8642C59.5177 13.5743 59.1041 13.3809 58.7594 13.2843C58.6905 13.2843 58.5388 13.2567 58.3045 13.2152C58.0701 13.1738 57.7944 13.16 57.4773 13.2152C57.1602 13.2705 56.8431 13.3533 56.526 13.5328C56.2089 13.7123 55.9469 13.9885 55.7539 14.3752C55.492 14.8861 55.4506 15.4385 55.6023 15.9908C55.7677 16.557 56.0848 16.9989 56.5673 17.3165C57.0223 17.5789 57.5186 17.8136 58.0701 18.0208C58.6216 18.2279 59.2006 18.435 59.8072 18.6283C60.3587 18.7941 60.9102 18.9736 61.4754 19.1669C62.0407 19.3602 62.606 19.5812 63.185 19.8435C65.2944 20.8102 66.9626 22.2325 68.162 24.1105C69.3615 25.9885 69.9681 28.0599 69.9681 30.3522C69.9681 32.6168 69.3615 34.6744 68.162 36.5524C66.9626 38.4304 65.3082 39.8389 63.185 40.8194C62.3578 41.206 61.503 41.4822 60.6344 41.6617C59.7659 41.8412 58.8835 41.9379 58.0149 41.9379Z" fill="white"/>
<path d="M83.9755 41.9379C82.845 41.9379 81.7283 41.786 80.6115 41.4822C79.4948 41.1784 78.447 40.6951 77.4406 40.0599C75.7034 38.9275 74.3523 37.4638 73.3735 35.6824C72.4084 33.8873 71.9258 31.9264 71.9258 29.7998H80.1014C80.1014 30.7664 80.3082 31.5259 80.7356 32.0507C81.1492 32.5892 81.5215 32.9483 81.8524 33.1416C82.4314 33.5282 83.0656 33.7354 83.7412 33.7768C84.4167 33.8044 85.0785 33.6801 85.7265 33.3901C86.1814 33.1968 86.5399 32.9483 86.8156 32.6583C87.0913 32.3683 87.2982 32.0783 87.4498 31.8159C87.5877 31.5397 87.6842 31.2774 87.7118 31.015C87.7393 30.7526 87.7531 30.5455 87.7531 30.3798C87.7531 30.2141 87.7393 30.0069 87.7118 29.7446C87.6842 29.4822 87.5877 29.206 87.4498 28.916C87.2982 28.626 87.0913 28.3499 86.8156 28.0737C86.5399 27.7975 86.1814 27.5489 85.7265 27.328C85.368 27.1623 84.9958 27.0242 84.5959 26.8861C84.1961 26.7618 83.7687 26.6099 83.3138 26.4442C82.5141 26.1819 81.6731 25.8919 80.8046 25.5743C79.936 25.2567 79.0674 24.8148 78.1989 24.2624C77.0683 23.5581 76.117 22.6606 75.345 21.5973C74.5729 20.534 74.0214 19.3878 73.6768 18.1588C73.3321 16.9298 73.2218 15.6594 73.3321 14.3614C73.4424 13.0495 73.8009 11.8067 74.4213 10.6053C75.0003 9.51442 75.731 8.5616 76.5996 7.74687C77.4681 6.94595 78.4332 6.29693 79.4948 5.82742C80.5564 5.35792 81.7007 5.08174 82.9277 4.98507C84.1548 4.88841 85.3956 4.99888 86.6502 5.3303C87.8772 5.62029 88.9801 6.07598 89.9728 6.7112C90.9654 7.34641 91.8202 8.1059 92.5509 8.98968C93.2816 9.87345 93.8193 10.8677 94.2054 11.9724C94.5914 13.0633 94.7844 14.2095 94.7844 15.4109H86.6502C86.6502 14.6652 86.4158 14.1542 85.947 13.8642C85.4783 13.5604 85.0647 13.3671 84.7062 13.2705C84.6373 13.2705 84.4856 13.2428 84.2513 13.2014C84.0169 13.16 83.7411 13.1462 83.4241 13.2014C83.107 13.2567 82.8036 13.3671 82.4866 13.5466C82.1695 13.7262 81.9075 14.0023 81.7145 14.389C81.4525 14.8999 81.4112 15.4523 81.5628 16.0046C81.7283 16.5708 82.0454 17.0127 82.5279 17.3303C82.9829 17.5927 83.4792 17.8274 84.0307 18.0346C84.5821 18.2417 85.1612 18.4488 85.7678 18.6422C86.3193 18.8079 86.8708 18.9874 87.436 19.1807C88.0013 19.374 88.5665 19.595 89.1456 19.8573C91.255 20.824 92.9232 22.2463 94.1226 24.1243C95.3221 26.0023 95.9287 28.0737 95.9287 30.366C95.9287 32.6306 95.3221 34.6882 94.1226 36.5662C92.9232 38.4442 91.2688 39.8527 89.1456 40.8332C88.3184 41.2198 87.4636 41.496 86.595 41.6755C85.7265 41.8412 84.8579 41.9379 83.9755 41.9379Z" fill="white"/>
<path d="M114.706 5.66174C117.147 5.66174 119.449 6.13125 121.614 7.07026C123.778 8.00927 125.653 9.2797 127.266 10.8677C128.879 12.4696 130.148 14.3476 131.085 16.5156C132.023 18.6836 132.491 20.9897 132.491 23.4339C132.491 25.8919 132.023 28.198 131.085 30.366C130.148 32.534 128.879 34.412 127.266 36.0139C125.653 37.6157 123.778 38.8861 121.614 39.8113C119.463 40.7504 117.16 41.2199 114.706 41.2199C112.252 41.2199 109.964 40.7504 107.799 39.8113C105.648 38.8723 103.773 37.6019 102.174 36.0139C100.575 34.412 99.3203 32.534 98.3828 30.366C97.4453 28.198 96.9765 25.8919 96.9765 23.4339C96.9765 20.9759 97.4453 18.6698 98.3828 16.5156C99.3203 14.3476 100.575 12.4696 102.174 10.8677C103.773 9.26589 105.648 8.00927 107.799 7.07026C109.95 6.13125 112.266 5.66174 114.706 5.66174ZM114.734 33.0311C116.057 33.0311 117.298 32.7826 118.456 32.2854C119.614 31.7883 120.635 31.0979 121.503 30.2279C122.372 29.3579 123.061 28.3361 123.557 27.1761C124.054 26.0162 124.302 24.7734 124.302 23.4477C124.302 22.122 124.054 20.8792 123.557 19.7193C123.061 18.5593 122.372 17.5375 121.503 16.6675C120.635 15.7975 119.614 15.1071 118.456 14.61C117.298 14.1128 116.057 13.8643 114.734 13.8643C113.41 13.8643 112.17 14.1128 111.011 14.61C109.853 15.1071 108.833 15.7975 107.965 16.6675C107.096 17.5375 106.407 18.5593 105.91 19.7193C105.414 20.8792 105.166 22.122 105.166 23.4477C105.166 24.7734 105.414 26.0162 105.91 27.1761C106.407 28.3361 107.096 29.3579 107.965 30.2279C108.833 31.0979 109.853 31.7883 111.011 32.2854C112.17 32.7688 113.41 33.0311 114.734 33.0311Z" fill="white"/>
<path d="M145.672 32.0506C145.258 32.1197 144.831 32.1611 144.417 32.1887C144.003 32.2163 143.562 32.2577 143.107 32.2854V41.2474H134.932V5.85498H143.107C145.134 5.8826 147.036 6.25544 148.815 6.97351C150.593 7.67777 152.138 8.63058 153.475 9.83197C154.812 11.0195 155.86 12.4142 156.618 13.9885C157.377 15.5627 157.749 17.2612 157.749 19.0702C157.749 20.9758 157.349 22.7434 156.536 24.359C155.736 25.9885 154.605 27.397 153.144 28.5846L160.975 41.2612H151.352L145.672 32.0506ZM143.107 24.069C143.976 24.0414 144.803 23.8895 145.603 23.6133C146.388 23.3371 147.092 22.9781 147.684 22.5224C148.277 22.0667 148.746 21.542 149.091 20.9482C149.435 20.3544 149.601 19.7192 149.601 19.0287C149.601 18.3521 149.435 17.7169 149.091 17.1369C148.746 16.5569 148.291 16.046 147.684 15.5903C147.092 15.1346 146.388 14.7756 145.603 14.4994C144.817 14.2232 143.99 14.0713 143.107 14.0437V24.069Z" fill="white"/>
<path d="M172.363 41.9379C171.232 41.9379 170.116 41.786 168.999 41.4822C167.882 41.1784 166.834 40.6951 165.828 40.0599C164.091 38.9275 162.74 37.4638 161.761 35.6824C160.796 33.8873 160.313 31.9264 160.313 29.7998H168.489C168.489 30.7664 168.696 31.5259 169.123 32.0507C169.537 32.5892 169.909 32.9483 170.24 33.1416C170.819 33.5282 171.453 33.7354 172.128 33.7768C172.804 33.8044 173.466 33.6801 174.114 33.3901C174.569 33.1968 174.927 32.9483 175.203 32.6583C175.479 32.3683 175.685 32.0783 175.837 31.8159C175.975 31.5397 176.072 31.2774 176.099 31.015C176.127 30.7526 176.14 30.5455 176.14 30.3798C176.14 30.2141 176.127 30.0069 176.099 29.7446C176.072 29.4822 175.975 29.206 175.837 28.916C175.685 28.626 175.479 28.3499 175.203 28.0737C174.927 27.7975 174.569 27.5489 174.114 27.328C173.755 27.1623 173.383 27.0242 172.983 26.8861C172.583 26.7618 172.156 26.6099 171.701 26.4442C170.901 26.1819 170.06 25.8919 169.192 25.5743C168.323 25.2567 167.455 24.8148 166.586 24.2624C165.456 23.5581 164.504 22.6606 163.732 21.5973C162.96 20.534 162.409 19.3878 162.064 18.1588C161.719 16.9298 161.609 15.6594 161.719 14.3614C161.83 13.0495 162.188 11.8067 162.809 10.6053C163.388 9.51442 164.118 8.5616 164.987 7.74687C165.855 6.94595 166.821 6.29693 167.882 5.82742C168.944 5.35792 170.088 5.08174 171.315 4.98507C172.542 4.88841 173.783 4.99888 175.037 5.3303C176.265 5.62029 177.367 6.07598 178.36 6.7112C179.353 7.34641 180.208 8.1059 180.938 8.98968C181.669 9.87345 182.207 10.8677 182.593 11.9724C182.979 13.0633 183.172 14.2095 183.172 15.4109H175.037C175.037 14.6652 174.803 14.1542 174.334 13.8642C173.866 13.5743 173.452 13.3809 173.107 13.2843C173.038 13.2843 172.887 13.2567 172.652 13.2152C172.418 13.1738 172.142 13.16 171.825 13.2152C171.508 13.2705 171.205 13.3809 170.888 13.5604C170.571 13.74 170.309 14.0161 170.116 14.4028C169.854 14.9137 169.812 15.4661 169.964 16.0184C170.129 16.5846 170.446 17.0265 170.929 17.3441C171.384 17.6065 171.88 17.8412 172.432 18.0484C172.983 18.2555 173.562 18.4626 174.169 18.656C174.72 18.8217 175.272 19.0012 175.837 19.1945C176.402 19.3878 176.968 19.6088 177.547 19.8712C179.656 20.8378 181.324 22.2601 182.524 24.1381C183.723 26.0161 184.33 28.0875 184.33 30.3798C184.33 32.6445 183.723 34.702 182.524 36.58C181.324 38.458 179.67 39.8666 177.547 40.847C176.719 41.2336 175.865 41.5098 174.996 41.6893C174.1 41.8412 173.231 41.9379 172.363 41.9379Z" fill="white"/>
</svg>
