<svg width="8" height="6" viewBox="0 0 8 6" fill="none" xmlns="http://www.w3.org/2000/svg">
<path d="M3.34025 5.70133C3.30642 5.66837 3.16175 5.54392 3.04275 5.42799C2.29433 4.74834 1.06933 2.97532 0.695417 2.04733C0.635333 1.9064 0.508167 1.55009 0.5 1.35972C0.5 1.1773 0.542 1.00341 0.627167 0.837474C0.746167 0.630622 0.933417 0.464686 1.1545 0.373762C1.30792 0.31523 1.767 0.224306 1.77517 0.224306C2.27742 0.133382 3.0935 0.083374 3.99533 0.083374C4.85458 0.083374 5.63742 0.133382 6.14725 0.207826C6.15542 0.21635 6.72592 0.307274 6.92133 0.406722C7.27833 0.589138 7.5 0.945446 7.5 1.32676V1.35972C7.49125 1.60805 7.26958 2.1303 7.26142 2.1303C6.88692 3.00828 5.722 4.74038 4.94792 5.43652C4.94792 5.43652 4.749 5.63257 4.62475 5.71781C4.44625 5.85079 4.22517 5.91671 4.00408 5.91671C3.75733 5.91671 3.5275 5.84226 3.34025 5.70133Z" fill="#696974"/>
</svg>
