<svg width="20" height="20" viewBox="0 0 20 20" fill="none" xmlns="http://www.w3.org/2000/svg">
<path d="M9.95752 12.1166C7.08253 12.1166 4.65674 12.5864 4.65674 14.3995C4.65674 16.2134 7.0982 16.6666 9.95752 16.6666C12.8325 16.6666 15.2583 16.1968 15.2583 14.3837C15.2583 12.5699 12.8168 12.1166 9.95752 12.1166Z" fill="#9999BC"/>
<path opacity="0.4" d="M9.95745 10.3892C11.9042 10.3892 13.4652 8.8192 13.4652 6.86124C13.4652 4.90253 11.9042 3.33331 9.95745 3.33331C8.01069 3.33331 6.44971 4.90253 6.44971 6.86124C6.44971 8.8192 8.01069 10.3892 9.95745 10.3892Z" fill="#9999BC"/>
<path opacity="0.4" d="M17.5733 7.68269C18.077 5.70147 16.6003 3.92212 14.72 3.92212C14.5155 3.92212 14.32 3.94463 14.129 3.98291C14.1036 3.98891 14.0753 4.00167 14.0603 4.02418C14.0432 4.0527 14.0559 4.09097 14.0745 4.11574C14.6394 4.91273 14.964 5.88308 14.964 6.92472C14.964 7.92284 14.6662 8.85341 14.1439 9.62564C14.0902 9.70519 14.1379 9.81251 14.2327 9.82902C14.364 9.85228 14.4983 9.86429 14.6356 9.86804C16.0049 9.90406 17.2338 9.01777 17.5733 7.68269Z" fill="#9999BC"/>
<path d="M19.0076 12.3474C18.7569 11.8101 18.1517 11.4416 17.2317 11.2608C16.7974 11.1542 15.6222 11.0041 14.5291 11.0244C14.5127 11.0266 14.5037 11.0379 14.5022 11.0454C14.5 11.0559 14.5045 11.0739 14.5261 11.0852C15.0313 11.3366 16.984 12.43 16.7385 14.7362C16.728 14.836 16.8079 14.9223 16.9071 14.9073C17.3877 14.8382 18.6241 14.5711 19.0076 13.7388C19.2195 13.299 19.2195 12.788 19.0076 12.3474Z" fill="#9999BC"/>
<path opacity="0.4" d="M5.87057 3.98315C5.6803 3.94413 5.48405 3.92236 5.2796 3.92236C3.39926 3.92236 1.92259 5.70171 2.427 7.68293C2.76576 9.01801 3.9947 9.90431 5.36392 9.86828C5.50122 9.86453 5.63627 9.85177 5.76685 9.82926C5.86162 9.81275 5.90937 9.70543 5.85565 9.62588C5.33333 8.85291 5.03561 7.92308 5.03561 6.92497C5.03561 5.88257 5.36094 4.91222 5.92579 4.11598C5.9437 4.09122 5.95713 4.05294 5.93922 4.02443C5.92429 4.00116 5.89669 3.98915 5.87057 3.98315Z" fill="#9999BC"/>
<path d="M2.76788 11.2605C1.84786 11.4414 1.24346 11.8099 0.992746 12.3472C0.780087 12.7877 0.780087 13.2988 0.992746 13.7393C1.37628 14.5708 2.61268 14.8387 3.09321 14.907C3.19245 14.922 3.27155 14.8365 3.2611 14.7359C3.01561 12.4305 4.96833 11.3371 5.47424 11.0857C5.49513 11.0737 5.49961 11.0564 5.49737 11.0451C5.49588 11.0376 5.48767 11.0264 5.47125 11.0249C4.37737 11.0039 3.2029 11.154 2.76788 11.2605Z" fill="#9999BC"/>
</svg>
