<svg width="14" height="10" viewBox="0 0 14 10" fill="none" xmlns="http://www.w3.org/2000/svg">
<path d="M2.13996 1.19333C2.01442 1.06779 1.84416 0.997269 1.66663 0.997269C1.48909 0.997269 1.31883 1.06779 1.19329 1.19333C1.06776 1.31887 0.997231 1.48913 0.997231 1.66666C0.997231 1.8442 1.06776 2.01446 1.19329 2.14L4.05996 5L1.19329 7.86C1.13081 7.92197 1.08121 7.99571 1.04737 8.07695C1.01352 8.15819 0.996094 8.24532 0.996094 8.33333C0.996094 8.42134 1.01352 8.50848 1.04737 8.58972C1.08121 8.67095 1.13081 8.74469 1.19329 8.80666C1.25527 8.86915 1.329 8.91875 1.41024 8.95259C1.49148 8.98644 1.57862 9.00386 1.66663 9.00386C1.75463 9.00386 1.84177 8.98644 1.92301 8.95259C2.00425 8.91875 2.07798 8.86915 2.13996 8.80666L5.47329 5.47333C5.53578 5.41136 5.58537 5.33762 5.61922 5.25638C5.65307 5.17514 5.67049 5.08801 5.67049 5C5.67049 4.91199 5.65307 4.82485 5.61922 4.74361C5.58537 4.66237 5.53578 4.58864 5.47329 4.52666L2.13996 1.19333ZM9.93996 5L12.8066 2.14C12.9322 2.01446 13.0027 1.8442 13.0027 1.66666C13.0027 1.48913 12.9322 1.31887 12.8066 1.19333C12.6811 1.06779 12.5108 0.997269 12.3333 0.997269C12.1558 0.997269 11.9855 1.06779 11.86 1.19333L8.52663 4.52666C8.46414 4.58864 8.41454 4.66237 8.3807 4.74361C8.34685 4.82485 8.32943 4.91199 8.32943 5C8.32943 5.08801 8.34685 5.17514 8.3807 5.25638C8.41454 5.33762 8.46414 5.41136 8.52663 5.47333L11.86 8.80666C11.9219 8.86915 11.9957 8.91875 12.0769 8.95259C12.1581 8.98644 12.2453 9.00386 12.3333 9.00386C12.4213 9.00386 12.5084 8.98644 12.5897 8.95259C12.6709 8.91875 12.7446 8.86915 12.8066 8.80666C12.8691 8.74469 12.9187 8.67095 12.9526 8.58972C12.9864 8.50848 13.0038 8.42134 13.0038 8.33333C13.0038 8.24532 12.9864 8.15819 12.9526 8.07695C12.9187 7.99571 12.8691 7.92197 12.8066 7.86L9.93996 5Z" fill="#08CCAD"/>
</svg>
