<svg width="18" height="18" viewBox="0 0 18 18" fill="none" xmlns="http://www.w3.org/2000/svg">
<path fill-rule="evenodd" clip-rule="evenodd" d="M11.7024 2.94801C11.7024 4.79884 13.205 6.29923 15.0585 6.29923C15.2626 6.29822 15.4662 6.27863 15.6667 6.24069V12.8846C15.6667 15.6797 14.018 17.3334 11.2188 17.3334H5.12205C2.3155 17.3334 0.666748 15.6797 0.666748 12.8846V6.79679C0.666748 4.00167 2.3155 2.33337 5.12205 2.33337H11.761C11.7216 2.53588 11.702 2.74172 11.7024 2.94801ZM9.9584 11.4139L12.3399 8.34069V8.32606C12.5438 8.05209 12.4918 7.66578 12.2227 7.45532C12.0924 7.35478 11.9269 7.31125 11.764 7.33469C11.601 7.35814 11.4545 7.44654 11.358 7.57971L9.35019 10.1626L7.06392 8.36264C6.93339 8.26095 6.76734 8.21605 6.60326 8.23808C6.43918 8.26011 6.2909 8.34721 6.19191 8.47971L3.72977 11.6553C3.64322 11.7632 3.59663 11.8976 3.59787 12.0358C3.58358 12.3152 3.75998 12.5689 4.02706 12.6532C4.29415 12.7375 4.58456 12.6311 4.73368 12.3943L6.79279 9.73093L9.07906 11.5236C9.2091 11.6285 9.37624 11.676 9.54208 11.6553C9.70792 11.6346 9.8582 11.5474 9.9584 11.4139Z" fill="#08CCAD"/>
<ellipse opacity="0.4" cx="15.2501" cy="2.75002" rx="2.08333" ry="2.08333" fill="#08CCAD"/>
</svg>
