<svg width="27" height="26" viewBox="0 0 27 26" fill="none" xmlns="http://www.w3.org/2000/svg">
<path d="M13.4993 10.3137C12.968 10.3137 12.4485 10.4712 12.0067 10.7664C11.5649 11.0617 11.2205 11.4813 11.0172 11.9722C10.8138 12.4631 10.7606 13.0033 10.8643 13.5245C10.968 14.0456 11.2239 14.5243 11.5996 14.9001C11.9753 15.2758 12.454 15.5317 12.9752 15.6354C13.4964 15.739 14.0366 15.6858 14.5275 15.4825C15.0184 15.2791 15.438 14.9348 15.7332 14.493C16.0284 14.0511 16.186 13.5317 16.186 13.0003C16.186 12.6475 16.1165 12.2981 15.9815 11.9722C15.8465 11.6462 15.6486 11.35 15.3991 11.1006C15.1496 10.8511 14.8535 10.6532 14.5275 10.5182C14.2015 10.3832 13.8522 10.3137 13.4993 10.3137ZM24.2568 7.65949C24.2512 6.8229 24.0971 5.99394 23.8018 5.21116C23.5844 4.63836 23.248 4.11818 22.8147 3.68494C22.3815 3.25171 21.8613 2.91527 21.2885 2.69783C20.5057 2.40258 19.6768 2.24852 18.8402 2.24283C17.4427 2.16699 17.031 2.16699 13.4993 2.16699C9.96768 2.16699 9.55602 2.16699 8.15852 2.24283C7.32192 2.24852 6.49297 2.40258 5.71018 2.69783C5.13738 2.91527 4.6172 3.25171 4.18397 3.68494C3.75073 4.11818 3.41429 4.63836 3.19685 5.21116C2.9016 5.99394 2.74755 6.8229 2.74185 7.65949C2.66602 9.05699 2.66602 9.46866 2.66602 13.0003C2.66602 16.532 2.66602 16.9437 2.74185 18.3412C2.75351 19.1807 2.90735 20.0122 3.19685 20.8003C3.41333 21.3705 3.74949 21.8877 4.18268 22.317C4.61406 22.7528 5.13535 23.0893 5.71018 23.3028C6.49297 23.5981 7.32192 23.7521 8.15852 23.7578C9.55602 23.8337 9.96768 23.8337 13.4993 23.8337C17.031 23.8337 17.4427 23.8337 18.8402 23.7578C19.6768 23.7521 20.5057 23.5981 21.2885 23.3028C21.8633 23.0893 22.3846 22.7528 22.816 22.317C23.2492 21.8877 23.5854 21.3705 23.8018 20.8003C24.0968 20.0137 24.2508 19.1812 24.2568 18.3412C24.3327 16.9437 24.3327 16.532 24.3327 13.0003C24.3327 9.46866 24.3327 9.05699 24.2568 7.65949ZM21.5052 16.3262C21.4704 16.9947 21.3277 17.6532 21.0827 18.2762C20.8724 18.7958 20.5597 19.2679 20.1633 19.6643C19.7669 20.0607 19.2948 20.3733 18.7752 20.5837C18.1463 20.8151 17.4841 20.9431 16.8144 20.9628C15.9585 20.9628 15.731 20.9628 13.4993 20.9628C11.2677 20.9628 11.0402 20.9628 10.1843 20.9628C9.51456 20.9431 8.85238 20.8151 8.22352 20.5837C7.68629 20.384 7.20115 20.0655 6.80435 19.652C6.41182 19.2633 6.10868 18.7938 5.91602 18.2762C5.6837 17.648 5.55917 16.985 5.54768 16.3153C5.54768 15.4595 5.54768 15.232 5.54768 13.0003C5.54768 10.7687 5.54768 10.5412 5.54768 9.68533C5.55917 9.01564 5.6837 8.3527 5.91602 7.72449C6.11565 7.18727 6.43415 6.70213 6.84768 6.30533C7.23804 5.91492 7.70705 5.61209 8.22352 5.41699C8.85238 5.1856 9.51456 5.05755 10.1843 5.03783C11.0402 5.03783 11.2677 5.03783 13.4993 5.03783C15.731 5.03783 15.9585 5.03783 16.8144 5.03783C17.4841 5.05755 18.1463 5.1856 18.7752 5.41699C19.3124 5.61663 19.7976 5.93512 20.1943 6.34866C20.5869 6.7373 20.89 7.2068 21.0827 7.72449C21.3141 8.35335 21.4421 9.01553 21.4618 9.68533C21.4618 10.5412 21.4618 10.7687 21.4618 13.0003C21.4618 15.232 21.5377 15.4595 21.5052 16.3153V16.3262ZM19.7719 8.26616C19.6429 7.91623 19.4395 7.59844 19.1758 7.33472C18.9121 7.07101 18.5943 6.86764 18.2443 6.73866C17.7639 6.57211 17.2578 6.49143 16.7493 6.50033C15.9043 6.50033 15.666 6.50033 13.4993 6.50033C11.3327 6.50033 11.0943 6.50033 10.2493 6.50033C9.73831 6.50532 9.23217 6.60068 8.75435 6.78199C8.40977 6.90512 8.09535 7.10018 7.83198 7.35421C7.56861 7.60824 7.36233 7.91542 7.22685 8.25533C7.06952 8.73781 6.99266 9.24289 6.99935 9.75033C6.99935 10.5953 6.99935 10.8337 6.99935 13.0003C6.99935 15.167 6.99935 15.4053 6.99935 16.2503C7.01009 16.7608 7.10527 17.266 7.28102 17.7453C7.41 18.0953 7.61337 18.413 7.87708 18.6768C8.1408 18.9405 8.45858 19.1438 8.80852 19.2728C9.27074 19.4428 9.75714 19.5379 10.2493 19.5545C11.0943 19.5545 11.3327 19.5545 13.4993 19.5545C15.666 19.5545 15.9043 19.5545 16.7493 19.5545C17.2604 19.5495 17.7665 19.4541 18.2443 19.2728C18.5943 19.1438 18.9121 18.9405 19.1758 18.6768C19.4395 18.413 19.6429 18.0953 19.7719 17.7453C19.9532 17.2675 20.0485 16.7614 20.0535 16.2503C20.0535 15.4053 20.0535 15.167 20.0535 13.0003C20.0535 10.8337 20.0535 10.5953 20.0535 9.75033C20.0538 9.23877 19.9583 8.73169 19.7719 8.25533V8.26616ZM13.4993 17.1387C12.9564 17.1387 12.4188 17.0315 11.9173 16.8234C11.4158 16.6153 10.9603 16.3103 10.5769 15.9259C10.1935 15.5415 9.88971 15.0852 9.68292 14.5832C9.47613 14.0812 9.37042 13.5433 9.37185 13.0003C9.37185 12.1814 9.61484 11.3808 10.07 10.7001C10.5252 10.0193 11.1722 9.48888 11.929 9.17598C12.6858 8.86308 13.5185 8.78176 14.3215 8.94232C15.1246 9.10288 15.8619 9.49809 16.4403 10.0779C17.0186 10.6578 17.4119 11.3962 17.5703 12.1996C17.7288 13.0031 17.6453 13.8355 17.3304 14.5915C17.0155 15.3475 16.4834 15.9931 15.8014 16.4465C15.1195 16.8999 14.3183 17.1408 13.4993 17.1387ZM17.8327 9.67449C17.5932 9.64914 17.3716 9.53607 17.2105 9.35704C17.0494 9.17802 16.9603 8.94573 16.9603 8.70491C16.9603 8.46409 17.0494 8.2318 17.2105 8.05277C17.3716 7.87375 17.5932 7.76067 17.8327 7.73533C18.0722 7.76067 18.2938 7.87375 18.4549 8.05277C18.6159 8.2318 18.7051 8.46409 18.7051 8.70491C18.7051 8.94573 18.6159 9.17802 18.4549 9.35704C18.2938 9.53607 18.0722 9.64914 17.8327 9.67449Z" fill="white"/>
</svg>
