<svg width="17" height="17" viewBox="0 0 17 17" fill="none" xmlns="http://www.w3.org/2000/svg">
<path fill-rule="evenodd" clip-rule="evenodd" d="M13.6 12.41L16.745 15.555C17.085 15.895 17.085 16.405 16.745 16.745C16.575 16.915 16.32 17 16.15 17C15.98 17 15.725 16.915 15.555 16.745L12.41 13.6C11.135 14.705 9.435 15.3 7.65 15.3C3.4 15.3 0 11.9 0 7.65C0 3.4 3.4 0 7.65 0C11.9 0 15.3 3.4 15.3 7.65C15.3 9.435 14.62 11.135 13.6 12.41ZM7.65 1.7C4.335 1.7 1.7 4.335 1.7 7.65C1.7 10.965 4.335 13.6 7.735 13.515C9.35 13.515 10.795 12.92 11.9 11.815C12.92 10.795 13.6 9.265 13.6 7.65C13.6 4.335 10.965 1.7 7.65 1.7Z" fill="#08CCAD"/>
</svg>
