<svg width="20" height="20" viewBox="0 0 20 20" fill="none" xmlns="http://www.w3.org/2000/svg">
<path opacity="0.4" d="M9.99922 18.3319C9.35839 18.3319 8.71839 18.0885 8.22922 17.6027L7.62089 16.9944C7.38506 16.7594 7.06922 16.6293 6.73422 16.6285H5.87839C4.49505 16.6285 3.36922 15.5027 3.36922 14.1194V13.2627C3.36839 12.9285 3.23839 12.6127 3.00255 12.3752L2.40422 11.7777C1.42422 10.8035 1.42005 9.21102 2.39505 8.23018L3.00339 7.62102C3.23839 7.38518 3.36839 7.06935 3.36922 6.73435V5.87935C3.36922 4.49518 4.49505 3.36935 5.87839 3.36935H6.73505C7.06922 3.36935 7.38422 3.23935 7.62172 3.00185L8.22089 2.40435C9.19506 1.42435 10.7867 1.41935 11.7684 2.39518L12.3767 3.00352C12.6134 3.23935 12.9284 3.36935 13.2626 3.36935H14.1192C15.5026 3.36935 16.6284 4.49518 16.6284 5.87935V6.73518C16.6292 7.06935 16.7592 7.38518 16.9951 7.62268L17.5934 8.22102C18.0676 8.69268 18.3301 9.32102 18.3326 9.99185C18.3342 10.6585 18.0776 11.286 17.6101 11.7602C17.6017 11.7685 17.5942 11.7777 17.5859 11.7852L16.9942 12.3769C16.7592 12.6127 16.6292 12.9285 16.6284 13.2635V14.1194C16.6284 15.5027 15.5026 16.6285 14.1192 16.6285H13.2626C12.9284 16.6293 12.6126 16.7594 12.3759 16.9952L11.7767 17.5935C11.2884 18.0852 10.6434 18.3319 9.99922 18.3319Z" fill="#9999BC"/>
<path fill-rule="evenodd" clip-rule="evenodd" d="M8.36896 8.37575C8.23146 8.51325 8.05313 8.58742 7.85563 8.58742C7.67063 8.58742 7.48896 8.51159 7.34313 8.37492C7.2048 8.23742 7.12646 8.04909 7.12646 7.85825C7.12646 7.67659 7.20313 7.48992 7.33813 7.34575C7.4123 7.27075 7.50063 7.21409 7.58896 7.18409C7.84063 7.06909 8.1748 7.13659 8.37313 7.34492C8.44396 7.41575 8.49813 7.49325 8.53396 7.57409C8.57313 7.66075 8.59313 7.75909 8.59313 7.85825C8.59313 8.05659 8.51396 8.24075 8.36896 8.37575ZM12.6587 7.3415C12.3745 7.05817 11.912 7.05817 11.6279 7.3415L7.34455 11.6248C7.06038 11.909 7.06038 12.3715 7.34455 12.6565C7.48288 12.794 7.66538 12.8698 7.86038 12.8698C8.05538 12.8698 8.23788 12.794 8.37538 12.6565L12.6587 8.37317C12.9429 8.08817 12.9429 7.6265 12.6587 7.3415ZM12.4215 11.4699C12.1515 11.3566 11.8315 11.4183 11.6181 11.6316C11.574 11.6833 11.5115 11.7633 11.469 11.8574C11.424 11.9591 11.4181 12.0683 11.4181 12.1416C11.4181 12.2149 11.424 12.3233 11.469 12.4249C11.5106 12.5183 11.5606 12.5941 11.6265 12.6599C11.7773 12.7999 11.9523 12.8708 12.1473 12.8708C12.3323 12.8708 12.514 12.7958 12.6631 12.6566C12.7956 12.5241 12.8681 12.3408 12.8681 12.1416C12.8681 11.9416 12.7956 11.7591 12.6623 11.6258C12.589 11.5533 12.5006 11.4966 12.4215 11.4699Z" fill="#9999BC"/>
</svg>
