<svg width="26" height="26" viewBox="0 0 26 26" fill="none" xmlns="http://www.w3.org/2000/svg">
<path d="M23.8327 6.28307C23.0184 6.63634 22.1572 6.86987 21.276 6.97641C22.2057 6.421 22.9024 5.54725 23.2369 4.51724C22.3632 5.03731 21.4068 5.40373 20.4093 5.60057C19.7426 4.87753 18.8547 4.39623 17.885 4.23216C16.9152 4.0681 15.9184 4.23054 15.051 4.69403C14.1835 5.15751 13.4944 5.89581 13.0917 6.79314C12.689 7.69048 12.5956 8.69608 12.826 9.65224C11.0596 9.56289 9.33166 9.10294 7.75456 8.30226C6.17746 7.50157 4.78643 6.37807 3.67185 5.00474C3.28091 5.68742 3.07549 6.46055 3.07602 7.24724C3.07463 7.97782 3.25392 8.69741 3.59792 9.34193C3.94192 9.98646 4.43995 10.5359 5.04768 10.9414C4.34132 10.9222 3.65006 10.7326 3.03268 10.3889V10.4431C3.03798 11.4667 3.39668 12.4571 4.04811 13.2467C4.69954 14.0363 5.60371 14.5767 6.60768 14.7764C6.22121 14.894 5.81996 14.956 5.41602 14.9606C5.1364 14.9573 4.85747 14.9319 4.58185 14.8847C4.86775 15.7653 5.42102 16.5348 6.16468 17.0862C6.90834 17.6377 7.80539 17.9436 8.73102 17.9614C7.16799 19.1913 5.23822 19.8625 3.24935 19.8681C2.88723 19.8693 2.5254 19.8475 2.16602 19.8031C4.19665 21.1142 6.56306 21.8102 8.98018 21.8072C10.6482 21.8246 12.3029 21.5093 13.8477 20.88C15.3925 20.2506 16.7965 19.3198 17.9775 18.1418C19.1585 16.9638 20.093 15.5622 20.7263 14.0191C21.3596 12.4759 21.6791 10.8219 21.666 9.1539C21.666 8.96974 21.666 8.77474 21.666 8.57974C22.5161 7.94578 23.2493 7.16862 23.8327 6.28307Z" fill="white"/>
</svg>
